<?xml version="1.0" encoding="UTF-8" standalone="no"?>
<!-- Created with Inkscape (http://www.inkscape.org/) -->

<svg
   width="94.711189mm"
   height="43.592762mm"
   viewBox="0 0 94.711189 43.592762"
   version="1.1"
   id="svg1"
   xml:space="preserve"
   xmlns:inkscape="http://www.inkscape.org/namespaces/inkscape"
   xmlns:sodipodi="http://sodipodi.sourceforge.net/DTD/sodipodi-0.dtd"
   xmlns="http://www.w3.org/2000/svg"
   xmlns:svg="http://www.w3.org/2000/svg"><sodipodi:namedview
     id="namedview1"
     pagecolor="#ffffff"
     bordercolor="#000000"
     borderopacity="0.25"
     inkscape:showpageshadow="2"
     inkscape:pageopacity="0.0"
     inkscape:pagecheckerboard="0"
     inkscape:deskcolor="#d1d1d1"
     inkscape:document-units="mm" /><defs
     id="defs1" /><g
     inkscape:label="Capa 1"
     inkscape:groupmode="layer"
     id="layer1"
     transform="translate(-8.079075,108.35727)"><g
       id="g1"
       transform="matrix(0.35277778,0,0,0.35277778,-3.6356223,-131.37198)"><path
         fill-rule="nonzero"
         fill="#fef9e6"
         fill-opacity="1"
         d="m 41.152344,118.58203 v 7.91406 c 0,1.66016 0.847656,3.21485 2.210937,4.05469 0.01172,0.008 0.01953,0.0117 0.02734,0.0156 0.09375,0.0586 0.195313,0.11328 0.292969,0.16406 0.03125,0.0156 0.0625,0.0273 0.08984,0.0391 0.08203,0.043 0.164062,0.0781 0.246093,0.11328 0.04687,0.0195 0.09766,0.0352 0.144531,0.0508 0.07031,0.0273 0.140626,0.0547 0.210938,0.0781 0.01953,0.004 0.03906,0.008 0.05859,0.0117 0.125,0.0391 0.25,0.0664 0.371094,0.0898 1.480468,0.28125 3.109374,-0.25 4.171874,-1.29687 0.609376,-0.59375 1.015626,-1.35547 1.128907,-2.19922 0.105469,-0.76563 0.710937,-1.83594 1.613281,-1.03125 l 4.132812,3.6875 c 0.847657,0.75 1.046876,2.0039 0.453126,2.96484 -2.1875,3.50781 -6.058594,5.85938 -10.460938,5.91016 -0.05078,0.004 -0.09766,0.004 -0.144531,0.004 -0.183594,0 -0.363281,-0.004 -0.542969,-0.0117 -0.02344,0 -0.04687,0 -0.07031,0 -0.0039,0 -0.0078,0 -0.01563,0 -0.07812,-0.004 -0.160156,-0.0117 -0.238281,-0.0195 -0.128906,-0.008 -0.261719,-0.0156 -0.390625,-0.0312 -0.08984,-0.008 -0.179687,-0.0234 -0.269531,-0.0312 -0.113281,-0.0156 -0.230469,-0.0273 -0.339844,-0.043 -0.15625,-0.0234 -0.304687,-0.0547 -0.453125,-0.082 -0.04687,-0.008 -0.09375,-0.0156 -0.140625,-0.0234 -5.703125,-1.15235 -10.03125,-6.21485 -10.03125,-12.24219 V 107.176 c 0,-1.78515 0.121094,-3.49609 0.71875,-5.19922 0.691407,-1.95312 1.859375,-3.746091 3.398438,-5.140622 C 37.804688,96.398438 38.328125,96 38.875,95.644531 c 3.65625,-2.367187 8.402344,-2.710937 12.316406,-0.765625 2.402344,1.195313 4.53125,3.183594 5.753906,5.582034 0.570313,1.12109 0.582032,2.19531 0.253907,3.20703 -0.582031,2.50781 -3.222657,4.22656 -5.03125,5.85547 -0.394531,0.35156 -0.984375,0.47265 -1.480469,0.30078 -0.40625,-0.14063 -0.679688,-0.45313 -0.75,-0.85938 -0.01563,-0.0898 -0.03516,-0.18359 -0.05078,-0.27343 -0.207031,-1.14063 -0.421875,-2.28125 -0.777344,-3.38672 -0.3125,-0.96485 -0.746094,-1.94141 -1.476563,-2.66797 -0.335937,-0.33594 -0.734374,-0.60547 -1.175781,-0.78125 -0.613281,-0.23828 -1.222656,-0.25 -1.867187,-0.125 -0.925782,0.18359 -1.785156,0.66797 -2.394532,1.39453 -0.734374,0.86719 -1.042968,2.00391 -1.042968,3.12891 z m 0,0"
         id="path234" /><path
         fill-rule="nonzero"
         fill="#fef9e6"
         fill-opacity="1"
         d="m 88.003906,138.07031 c -0.65625,0.23047 -1.347656,0.29688 -2.042968,0.3125 -1.433594,0.125 -2.84375,0.11328 -4.273438,0.125 -1.085938,0.008 -2.214844,0.0508 -3.253906,-0.3125 -1.5625,-0.53906 -0.816406,-1.9375 -0.199219,-2.95703 1.113281,-1.83984 0.933594,-3.62109 0.945313,-5.68359 0.0078,-1.375 -0.113282,-6.53906 -0.113282,-11.69531 -0.02734,-0.41797 -0.652344,-0.52735 -1.019531,-0.26563 l -2.121094,1.54688 c -1.039062,0.79296 -2.214843,1.69531 -3.347656,2.5625 -0.613281,0.47265 -1.054687,1.13671 -1.082031,1.93359 0,0 0.03906,6.9375 0.04297,6.95703 -0.0078,1.64062 -0.03906,3.07031 0.839844,4.51953 0.613282,1.01563 1.359375,2.41797 -0.199218,2.95703 -0.65625,0.23047 -1.351563,0.29688 -2.042969,0.3125 -1.4375,0.125 -2.84375,0.11328 -4.277344,0.125 -1.085937,0.008 -2.210937,0.0508 -3.25,-0.3125 -1.566406,-0.53906 -0.816406,-1.9414 -0.203125,-2.95703 1.113281,-1.83984 0.816406,-3.66406 0.828125,-5.72656 0.01953,-3.82031 0.03516,-7.63672 0.04297,-11.45703 0.01172,-4.16406 0.01563,-8.32813 -0.0039,-12.49219 -0.0078,-1.47266 -0.01953,-2.94141 -0.04688,-4.41406 -0.01172,-0.64063 0.05078,-1.36719 -0.08594,-2.003909 -0.289063,-1.332031 -2.921875,-3.648437 -0.566406,-4.46875 1.5,-0.519531 3.15625,-0.34375 4.714843,-0.394531 1.644532,-0.04687 3.347657,-0.08203 4.917969,0.464844 2.042969,0.710937 0,2.691406 -0.414062,3.808594 -0.328125,0.894531 -0.316407,2.035152 -0.304688,3.046872 -0.0078,0.0391 -0.0078,4.61328 -0.0039,10.11719 -0.0078,0.5 0.652344,0.67578 1.054687,0.38281 l 2.125,-1.54297 c 1.035157,-0.79687 2.210938,-1.69921 3.347657,-2.5664 0.558593,-0.42578 1.042969,-1.34766 1.050781,-1.73047 0,-0.29297 0.0078,-4.25391 -0.0078,-5.10938 -0.01563,-0.64453 0.05078,-1.37109 -0.08984,-2.007809 C 78.675781,97.8125 76.042969,95.5 78.402344,94.679688 c 1.5,-0.523438 3.152344,-0.347657 4.710937,-0.394532 1.648438,-0.05078 3.347657,-0.08594 4.917969,0.460938 2.042969,0.710937 0.0039,2.691406 -0.410156,3.808594 -0.332032,0.894531 -0.320313,2.035152 -0.308594,3.046872 -0.01563,0.10157 0.0039,28.8125 0.05469,28.99219 -0.0078,1.64062 -0.03906,3.07031 0.835937,4.51953 0.613281,1.01953 1.363281,2.41797 -0.199219,2.95703"
         id="path235" /><path
         fill-rule="nonzero"
         fill="#fef9e6"
         fill-opacity="1"
         d="m 105.00391,138.07422 c -0.65625,0.22656 -1.35157,0.29297 -2.04297,0.3125 -1.4375,0.12109 -2.84375,0.10937 -4.277346,0.12109 -1.082032,0.0117 -2.210938,0.0508 -3.25,-0.30859 -1.5625,-0.54297 -0.816406,-1.94141 -0.203125,-2.96094 1.117187,-1.83984 0.816406,-3.66406 0.832031,-5.72656 0.01563,-3.82031 0.03125,-7.63672 0.04297,-11.45703 0.0078,-4.16406 0.01563,-8.32813 -0.0078,-12.49219 -0.0078,-1.46875 -0.01953,-2.94141 -0.04687,-4.41406 -0.01172,-0.64063 0.05469,-1.371096 -0.08594,-2.003909 -0.289063,-1.332031 -2.921875,-3.648437 -0.5625,-4.464843 1.496094,-0.523438 3.152344,-0.351563 4.71094,-0.398438 1.64453,-0.04687 3.34766,-0.08203 4.92188,0.464844 2.03906,0.710937 0,2.691406 -0.41797,3.8125 -0.32813,0.890625 -0.31641,2.031246 -0.30469,3.042966 -0.0156,0.10157 0.004,28.8125 0.0547,28.9961 -0.008,1.63671 -0.0391,3.0664 0.83594,4.51562 0.61328,1.01953 1.36328,2.41797 -0.19922,2.96094"
         id="path236" /><path
         fill-rule="nonzero"
         fill="#fef9e6"
         fill-opacity="1"
         d="m 137.80078,138.07031 c -0.65234,0.23047 -1.34766,0.29688 -2.04297,0.3125 -1.43359,0.125 -2.84375,0.11328 -4.27344,0.125 -1.08203,0.008 -2.21093,0.0508 -3.25,-0.3125 -1.5664,-0.53906 -0.8164,-1.9375 -0.20312,-2.95703 1.11328,-1.83984 0.93359,-3.62109 0.94531,-5.68359 0.008,-1.375 -0.10937,-6.53906 -0.11328,-11.69531 -0.0234,-0.41797 -0.65234,-0.52735 -1.01562,-0.26563 l -2.125,1.54688 c -1.03516,0.79296 -2.21094,1.69531 -3.34375,2.5625 -0.61719,0.47265 -1.05469,1.13671 -1.08594,1.93359 0,0 0.043,6.9375 0.0469,6.95703 -0.008,1.64062 -0.0391,3.07031 0.83594,4.51953 0.61719,1.01563 1.36328,2.41797 -0.19922,2.95703 -0.65625,0.23047 -1.34765,0.29688 -2.04297,0.3125 -1.43359,0.125 -2.84375,0.11328 -4.27734,0.125 -1.08203,0.008 -2.21094,0.0508 -3.25,-0.3125 -1.5625,-0.53906 -0.81641,-1.9414 -0.20312,-2.95703 1.11718,-1.83984 0.82031,-3.66406 0.83203,-5.72656 0.0156,-3.82031 0.0352,-7.63672 0.043,-11.45703 0.008,-4.16406 0.0156,-8.32813 -0.004,-12.49219 -0.0117,-1.47266 -0.0195,-2.94141 -0.0469,-4.41406 -0.0156,-0.64063 0.0508,-1.36719 -0.0859,-2.003909 -0.29297,-1.332031 -2.92578,-3.648437 -0.56641,-4.46875 1.5,-0.519531 3.15234,-0.34375 4.71484,-0.394531 1.64454,-0.04687 3.34375,-0.08203 4.91797,0.464844 2.03907,0.710937 0,2.691406 -0.41406,3.808594 -0.33203,0.894531 -0.32031,2.035152 -0.30859,3.046872 -0.004,0.0391 -0.008,4.61328 -0.004,10.11719 -0.004,0.5 0.65625,0.67578 1.05859,0.38281 l 2.1211,-1.54297 c 1.03906,-0.79687 2.21484,-1.69921 3.34765,-2.5664 0.5586,-0.42578 1.04688,-1.34766 1.05078,-1.73047 0,-0.29297 0.008,-4.25391 -0.008,-5.10938 -0.0117,-0.64453 0.0508,-1.37109 -0.0859,-2.007809 -0.29296,-1.332031 -2.92578,-3.644531 -0.5664,-4.464843 1.5,-0.523438 3.15625,-0.347657 4.71484,-0.394532 1.64453,-0.05078 3.34375,-0.08594 4.91797,0.460938 2.03906,0.710937 0,2.691406 -0.41406,3.808594 -0.32813,0.894531 -0.32031,2.035152 -0.30469,3.046872 -0.0156,0.10157 0.004,28.8125 0.0508,28.99219 -0.008,1.64062 -0.0391,3.07031 0.83985,4.51953 0.61328,1.01953 1.35937,2.41797 -0.20313,2.95703"
         id="path237" /><path
         fill-rule="nonzero"
         fill="#fef9e6"
         fill-opacity="1"
         d="m 171.22266,98.867188 c -0.32032,0.894531 -0.3125,2.035152 -0.30079,3.046872 -0.004,0.0391 -0.0469,24.42578 -0.0469,24.42578 0,6.86719 -5.62109,12.48828 -12.48828,12.48828 -6.86719,0 -12.48828,-5.62109 -12.48828,-12.48828 0,0 -0.0547,-23.40625 -0.082,-24.8789 -0.0117,-0.64063 0.0508,-1.3711 -0.082,-2.003909 -0.28515,-1.332031 -2.86718,-3.648437 -0.55468,-4.464843 1.46875,-0.523438 3.08984,-0.351563 4.61718,-0.398438 1.60938,-0.04687 3.27735,-0.08203 4.82032,0.464844 1.99609,0.707031 0,2.691406 -0.40625,3.808594 -0.32813,0.894531 -0.31641,2.035152 -0.30078,3.046872 -0.008,0.0391 -0.0703,24.42578 -0.0703,24.42578 0,2.46094 2.08203,4.54297 4.54688,4.54297 2.46094,0 4.54297,-2.08203 4.54297,-4.54297 0,0 -0.004,-23.45312 -0.0273,-24.8789 -0.0156,-0.64063 0.0469,-1.3711 -0.0859,-2.003909 -0.28125,-1.332031 -2.83985,-3.648437 -0.54688,-4.464843 1.45313,-0.523438 3.0625,-0.351563 4.57813,-0.398438 1.59375,-0.04687 3.24609,-0.08203 4.77734,0.464844 1.98047,0.710937 0,2.691406 -0.40234,3.808594"
         id="path238" /><path
         fill-rule="nonzero"
         fill="#fef9e6"
         fill-opacity="1"
         d="m 193.27344,117.16016 c -0.45313,-5.27735 -1.10547,-10.47266 -1.50782,-14.80469 -0.0391,-0.42969 -0.39843,-0.75391 -0.82812,-0.75391 h -2.63281 c -0.42969,0 -0.78907,0.32422 -0.82813,0.75391 -0.51172,5.51562 -1.4414,13.33594 -1.97265,19.73828 -0.043,0.51172 0.55859,0.81641 0.94921,0.47656 l 6.53907,-4.71093 c 0.19922,-0.17579 0.30468,-0.4336 0.28125,-0.69922 m 10.04297,20.75781 c -0.62891,0.53515 -1.72657,0.5664 -2.89844,0.54687 -0.15235,0 -0.28906,0 -0.40235,0 -1.23437,0.0234 -4.4414,0.14844 -5.35546,-0.28515 -1.08594,-0.51953 -0.53125,-1.78516 -0.12891,-2.57813 0.54297,-1.08203 0.23437,-2.14844 0.16016,-3.30078 -0.10547,-1.64844 -0.23438,-3.29687 -0.35547,-4.94531 -0.0391,-0.48047 -0.60938,-0.71875 -0.97266,-0.40234 l -8.12891,5.62109 c -0.60546,0.52344 -0.78125,1.03515 -0.78515,1.83203 -0.004,0.80469 0.38281,1.28516 0.63672,2.02344 0.23047,0.67578 0.2539,1.4375 -0.48438,1.78906 -0.91406,0.4375 -4.14062,0.26953 -5.3789,0.24609 -0.11329,0 -0.2461,0 -0.39844,0 -1.17188,0.0195 -2.27344,-0.0117 -2.89844,-0.54687 -1.02734,-0.875 -0.23437,-2.39844 0.40234,-3.61719 0.21485,-0.41016 0.41407,-0.79297 0.47657,-1.02344 0.33984,-1.28515 4.2539,-33.796871 3.73047,-35.691402 -0.0273,-0.09766 -0.0625,-0.207032 -0.10157,-0.324219 -0.17968,-0.558594 -0.42968,-1.324219 -0.13281,-1.9375 0.55469,-1.152344 2.24609,-1.0625 3.36719,-1 0.21875,0.01172 0.42578,0.02734 0.58984,0.02344 0.46094,0 0.91797,0 1.37891,0 h 7.96484 c 0.46094,0 0.91797,0 1.37891,0 0.16797,0.0039 0.37109,-0.01172 0.59375,-0.02344 1.11719,-0.0625 2.8125,-0.152344 3.36328,1 0.29687,0.613281 0.0469,1.378906 -0.13281,1.9375 -0.0352,0.117187 -0.0742,0.226562 -0.0977,0.324219 -0.52734,1.894531 3.38672,34.406252 3.73047,35.687502 0.0625,0.23437 0.26172,0.61718 0.47266,1.02734 0.64062,1.21875 1.43359,2.74219 0.40625,3.61719"
         id="path239" /><path
         fill-rule="nonzero"
         fill="#fef9e6"
         fill-opacity="1"
         d="m 235.65234,138.07031 c -0.65234,0.23047 -1.34765,0.29688 -2.04297,0.3125 -1.43359,0.125 -2.84375,0.11328 -4.27343,0.125 -1.08203,0.008 -2.21094,0.0508 -3.25,-0.3125 -1.56641,-0.53906 -0.81641,-1.9375 -0.20313,-2.95703 1.11328,-1.83984 0.9336,-3.62109 0.94531,-5.68359 0.008,-1.375 -0.10937,-6.53906 -0.11328,-11.69531 -0.0234,-0.41797 -0.65234,-0.52735 -1.01562,-0.26563 l -2.1211,1.54688 c -1.03906,0.79296 -2.21484,1.69531 -3.34765,2.5625 -0.61719,0.47265 -1.05469,1.13671 -1.08594,1.93359 0,0 0.043,6.9375 0.0469,6.95703 -0.008,1.64062 -0.0391,3.07031 0.83593,4.51953 0.61719,1.01563 1.36328,2.41797 -0.19922,2.95703 -0.65625,0.23047 -1.34765,0.29688 -2.04296,0.3125 -1.4336,0.125 -2.84375,0.11328 -4.27735,0.125 -1.08203,0.008 -2.21094,0.0508 -3.25,-0.3125 -1.5625,-0.53906 -0.8164,-1.9414 -0.20312,-2.95703 1.11718,-1.83984 0.82031,-3.66406 0.83203,-5.72656 0.0156,-3.82031 0.0352,-7.63672 0.043,-11.45703 0.008,-4.16406 0.0156,-8.32813 -0.004,-12.49219 -0.0117,-1.47266 -0.0195,-2.94141 -0.0469,-4.41406 -0.0156,-0.64063 0.0508,-1.36719 -0.0859,-2.003909 -0.29297,-1.332031 -2.92578,-3.648437 -0.56641,-4.46875 1.5,-0.519531 3.15235,-0.34375 4.71485,-0.394531 1.64453,-0.04687 3.34375,-0.08203 4.91796,0.464844 2.03907,0.710937 0,2.691406 -0.41406,3.808594 -0.33203,0.894531 -0.32031,2.035152 -0.30859,3.046872 -0.004,0.0391 -0.008,4.61328 -0.004,10.11719 -0.004,0.5 0.65625,0.67578 1.0586,0.38281 l 2.12109,-1.54297 c 1.03906,-0.79687 2.21484,-1.69921 3.34766,-2.5664 0.55859,-0.42578 1.04687,-1.34766 1.05078,-1.73047 0,-0.29297 0.008,-4.25391 -0.008,-5.10938 -0.0117,-0.64453 0.0508,-1.37109 -0.0859,-2.007809 -0.29297,-1.332031 -2.92578,-3.644531 -0.56641,-4.464843 1.5,-0.523438 3.15625,-0.347657 4.71484,-0.394532 1.64454,-0.05078 3.34375,-0.08594 4.91797,0.460938 2.03907,0.710937 0,2.691406 -0.41406,3.808594 -0.32812,0.894531 -0.32031,2.035152 -0.30469,3.046872 -0.0156,0.10157 0.004,28.8125 0.0508,28.99219 -0.008,1.64062 -0.0391,3.07031 0.83985,4.51953 0.61328,1.01953 1.35937,2.41797 -0.20313,2.95703"
         id="path240" /><path
         fill-rule="nonzero"
         fill="#fef9e6"
         fill-opacity="1"
         d="m 269.07422,98.867188 c -0.32031,0.894531 -0.3125,2.035152 -0.30078,3.046872 -0.004,0.0391 -0.0469,24.42578 -0.0469,24.42578 0,6.86719 -5.62109,12.48828 -12.48828,12.48828 -6.87109,0 -12.48828,-5.62109 -12.48828,-12.48828 0,0 -0.0547,-23.40625 -0.082,-24.8789 -0.0117,-0.64063 0.0508,-1.3711 -0.082,-2.003909 -0.28516,-1.332031 -2.86719,-3.648437 -0.55469,-4.464843 1.46875,-0.523438 3.08984,-0.351563 4.61719,-0.398438 1.60937,-0.04687 3.27734,-0.08203 4.82031,0.464844 1.99609,0.707031 0,2.691406 -0.40625,3.808594 -0.32813,0.894531 -0.31641,2.035152 -0.30078,3.046872 -0.008,0.0391 -0.0703,24.42578 -0.0703,24.42578 0,2.46094 2.08203,4.54297 4.54687,4.54297 2.46094,0 4.54297,-2.08203 4.54297,-4.54297 0,0 -0.004,-23.45312 -0.0273,-24.8789 -0.0156,-0.64063 0.0469,-1.3711 -0.0859,-2.003909 -0.28125,-1.332031 -2.83985,-3.648437 -0.54688,-4.464843 1.45313,-0.523438 3.0625,-0.351563 4.57813,-0.398438 1.59375,-0.04687 3.24609,-0.08203 4.77734,0.464844 1.98047,0.710937 0,2.691406 -0.40234,3.808594"
         id="path241" /><path
         fill-rule="nonzero"
         fill="#fef9e6"
         fill-opacity="1"
         d="m 291.125,117.16016 c -0.45313,-5.27735 -1.10547,-10.47266 -1.50781,-14.80469 -0.0391,-0.42969 -0.39844,-0.75391 -0.82813,-0.75391 h -2.63281 c -0.42969,0 -0.78906,0.32422 -0.82813,0.75391 -0.51171,5.51562 -1.4414,13.33594 -1.97265,19.73828 -0.043,0.51172 0.55859,0.81641 0.94922,0.47656 l 6.53906,-4.71093 c 0.19922,-0.17579 0.30469,-0.4336 0.28125,-0.69922 m 10.04297,20.75781 c -0.62891,0.53515 -1.72656,0.5664 -2.89844,0.54687 -0.15234,0 -0.28906,0 -0.40234,0 -1.23828,0.0234 -4.44141,0.14844 -5.35547,-0.28515 -1.08594,-0.51953 -0.53125,-1.78516 -0.13281,-2.57813 0.54687,-1.08203 0.23828,-2.14844 0.16406,-3.30078 -0.10547,-1.64844 -0.23438,-3.29687 -0.35547,-4.94531 -0.0391,-0.48047 -0.60938,-0.71875 -0.97266,-0.40234 l -8.1289,5.62109 c -0.60547,0.52344 -0.78125,1.03515 -0.78516,1.83203 -0.004,0.80469 0.38281,1.28516 0.63672,2.02344 0.23047,0.67578 0.25391,1.4375 -0.48438,1.78906 -0.91406,0.4375 -4.14062,0.26953 -5.3789,0.24609 -0.11328,0 -0.2461,0 -0.40235,0 -1.16796,0.0195 -2.26953,-0.0117 -2.89453,-0.54687 -1.02734,-0.875 -0.23437,-2.39844 0.40235,-3.61719 0.21484,-0.41016 0.41406,-0.79297 0.47656,-1.02344 0.33984,-1.28515 4.25391,-33.796871 3.73047,-35.691402 -0.0274,-0.09766 -0.0625,-0.207032 -0.10156,-0.324219 -0.17969,-0.558594 -0.42969,-1.324219 -0.13282,-1.9375 0.55469,-1.152344 2.2461,-1.0625 3.36719,-1 0.21875,0.01172 0.42578,0.02734 0.58984,0.02344 0.46094,0 0.91797,0 1.37891,0 h 7.96484 c 0.46094,0 0.91797,0 1.37891,0 0.16797,0.0039 0.37109,-0.01172 0.59375,-0.02344 1.11719,-0.0625 2.8125,-0.152344 3.36328,1 0.29688,0.613281 0.0469,1.378906 -0.13281,1.9375 -0.0352,0.117187 -0.0742,0.226562 -0.0977,0.324219 -0.52734,1.894531 3.38672,34.406252 3.73047,35.687502 0.0625,0.23437 0.26172,0.61718 0.47266,1.02734 0.64062,1.21875 1.43359,2.74219 0.40625,3.61719"
         id="path242" /><path
         fill-rule="nonzero"
         fill="#fef9e6"
         fill-opacity="1"
         d="m 177.03125,185.09375 c 0.57812,0.96484 1.28125,2.28906 -0.1875,2.80078 -0.97656,0.34375 -2.03906,0.30469 -3.05859,0.29297 -1.34375,-0.0117 -2.66797,0 -4.01563,-0.11328 -0.65234,-0.0195 -1.30469,-0.082 -1.92187,-0.29688 -1.46485,-0.51562 -0.76563,-1.83984 -0.1875,-2.80078 0.82421,-1.37109 0.79296,-2.72656 0.78906,-4.27734 0.0195,-0.0703 0.11719,-13.16406 0.12109,-14.67188 0,-0.38672 -0.51953,-0.5 -0.67969,-0.15625 l -7.19531,15.52735 c -0.375,0.80468 -1.51172,0.8164 -1.89844,0.0117 l -7.33984,-15.22657 c -0.16797,-0.34375 -0.68359,-0.22265 -0.67969,0.16016 0.0117,2.20312 -0.0352,14.30078 -0.0156,14.35547 -0.008,1.55078 -0.0391,2.90625 0.78515,4.27734 0.57813,0.96094 1.27735,2.28516 -0.1914,2.80078 -0.61719,0.21485 -1.26563,0.27735 -1.91797,0.29688 -1.34766,0.11328 -2.67188,0.10156 -4.01953,0.11328 -1.01953,0.0117 -2.07813,0.0508 -3.05469,-0.29297 -1.46875,-0.51172 -0.76562,-1.83594 -0.1875,-2.80078 1.04297,-1.74219 0.76563,-3.46875 0.77344,-5.42188 0.0195,-3.41796 0.0977,-21.11328 0.0859,-24.94531 0.004,0.004 0.008,0.004 0.0117,0.008 -0.008,-0.52343 -0.0156,-1.03906 -0.0234,-1.55859 -0.0117,-0.61328 0.0469,-1.30078 -0.082,-1.89844 -0.27344,-1.26172 -2.7461,-3.45312 -0.53125,-4.23047 1.41015,-0.49218 4.8789,-0.37109 6.34375,-0.30078 1.2539,0.0625 2.14843,1.51953 3.23046,3.94532 2.77735,6.21484 7.11329,15.78125 7.11329,15.78125 0.21875,0.44921 0.85937,0.44531 1.0664,-0.008 0,0 4.86328,-10.27734 7.48438,-16.25 0.97656,-2.21875 1.64062,-3.37109 2.88281,-3.46875 1.46484,-0.11718 4.9375,-0.1914 6.34375,0.30078 2.21875,0.77735 -0.25391,2.96875 -0.52734,4.23047 -0.12891,0.59766 -0.0703,1.28516 -0.082,1.89844 -0.0234,1.07813 -0.0312,2.15625 -0.0352,3.23828 0.0312,2.64063 0.0117,20.79297 0.0234,23.25781 0.0117,1.95313 -0.26954,3.67969 0.77734,5.42188"
         id="path243" /><path
         fill-rule="nonzero"
         fill="#fef9e6"
         fill-opacity="1"
         d="m 207.67969,150.93359 c -0.30078,0.83985 -0.28907,1.91016 -0.27735,2.85938 -0.004,0.0391 -0.0469,22.95703 -0.0469,22.95703 0,6.45703 -5.28125,11.73828 -11.73828,11.73828 -6.45313,0 -11.73438,-5.28125 -11.73438,-11.73828 0,0 -0.0508,-21.99609 -0.0781,-23.37891 -0.0117,-0.60547 0.0469,-1.28906 -0.0781,-1.88672 -0.26953,-1.25 -2.6914,-3.42578 -0.51953,-4.19531 1.37891,-0.48828 2.90234,-0.32812 4.33984,-0.37109 1.51172,-0.0469 3.07813,-0.0781 4.52735,0.43359 1.8789,0.66797 0.004,2.53125 -0.37891,3.58203 -0.30859,0.83985 -0.29687,1.91016 -0.28515,2.85938 -0.004,0.0391 -0.0625,22.95703 -0.0625,22.95703 0,2.31641 1.95703,4.27344 4.26953,4.27344 2.3164,0 4.27343,-1.95703 4.27343,-4.27344 0,0 -0.004,-22.03906 -0.0273,-23.37891 -0.0156,-0.60547 0.0469,-1.28906 -0.082,-1.88281 -0.26563,-1.25391 -2.66797,-3.42969 -0.51563,-4.19922 1.3711,-0.48828 2.87891,-0.32812 4.30469,-0.37109 1.5,-0.0469 3.05078,-0.0781 4.48828,0.43359 1.86328,0.66797 0,2.53125 -0.3789,3.58203"
         id="path244" /><path
         fill-rule="nonzero"
         fill="#fef9e6"
         fill-opacity="1"
         d="m 240.5625,187.77734 c -0.61719,0.21485 -1.26563,0.27735 -1.91797,0.29688 -1.35156,0.11719 -2.67187,0.10156 -4.01953,0.11328 -1.01953,0.0117 -2.07813,0.0508 -3.05469,-0.28906 -1.46875,-0.51172 -0.76562,-1.82813 -0.1914,-2.78125 1.04687,-1.73047 0.76953,-3.44532 0.78125,-5.38282 0.004,-0.85546 0.004,-3.5664 0.008,-6.95312 -0.0547,-0.13672 -0.10156,-0.26563 -0.15235,-0.40234 l -7.71875,-10.19922 c -0.35156,-0.39844 -1.01171,-0.15235 -1.00781,0.3789 0.0117,7.67578 0.0312,18.17578 0.0352,18.19532 -0.0117,1.53906 -0.0391,2.88281 0.78515,4.24609 0.57813,0.95312 1.27735,2.26953 -0.1875,2.77734 -0.61718,0.21485 -1.26953,0.27735 -1.92187,0.29688 -1.34766,0.11719 -2.67188,0.10156 -4.01953,0.11328 -1.01563,0.0117 -2.07813,0.0508 -3.05469,-0.28906 -1.46875,-0.51172 -0.76562,-1.82813 -0.1875,-2.78125 1.04688,-1.73047 0.76563,-3.44532 0.77734,-5.38282 0.0195,-3.58984 0.0312,-7.17968 0.0391,-10.76953 0.0117,-3.91015 0.0195,-7.82812 -0.004,-11.73828 -0.008,-1.38672 -0.0156,-2.76562 -0.043,-4.14844 -0.0117,-0.60546 0.0508,-1.28906 -0.082,-1.88671 -0.27344,-1.25 -2.74609,-3.42579 -0.53125,-4.19532 1.41016,-0.48828 4.97656,-0.60156 6.07031,0.375 2.71485,2.41797 6.60547,7.3125 10.1875,11.97657 0.32422,0.42578 1.01172,0.15234 1.01172,-0.38282 -0.004,-4.1289 -0.008,-5.59375 -0.0117,-5.88672 -0.0117,-0.60546 0.0469,-1.28906 -0.082,-1.88281 -0.27344,-1.2539 -2.74609,-3.42969 -0.53125,-4.19922 1.41016,-0.48828 2.96485,-0.32812 4.42969,-0.37109 1.54297,-0.0469 3.14453,-0.0781 4.62109,0.43359 1.91797,0.66797 0.004,2.52735 -0.38672,3.58203 -0.30859,0.83985 -0.30078,1.91016 -0.28906,2.85938 -0.0117,0.0977 0.004,27.08203 0.0508,27.25391 -0.008,1.53906 -0.0352,2.88281 0.78516,4.24609 0.57812,0.95703 1.28125,2.26953 -0.1875,2.77734"
         id="path245" /><path
         fill-rule="nonzero"
         fill="#fef9e6"
         fill-opacity="1"
         d="m 263.88672,154.51172 c -1.85547,-1.47266 -4.22656,-1.17188 -6.39453,-1.20313 -0.92188,-0.0156 -1.67578,0.8086 -1.67578,1.83203 -0.004,6.35157 0.0156,25.44922 0.0508,25.59375 0,0.33985 0.22265,0.54688 0.57422,0.66797 7.85156,-2.03515 8.7539,-13.40234 9.61328,-19.92968 0.34765,-2.62891 -0.082,-5.3086 -2.16797,-6.96094 m 9.89844,8.05469 c -0.79297,5.41796 -1.5625,7.94921 -2.29688,10.39453 -0.12109,0.39453 -0.24219,0.79297 -0.36328,1.20703 -0.93359,3.17969 -2.53125,6.1875 -4.8125,8.60156 -1.72266,1.82031 -3.82031,3.28125 -6.16406,4.17969 -3.05078,1.16797 -6.39063,1.21094 -9.61328,1.24219 -1.01954,0.008 -2.08204,0.0469 -3.0586,-0.29297 -1.46875,-0.51172 -0.76562,-1.82813 -0.1875,-2.78125 1.04688,-1.73047 0.76563,-3.44532 0.77735,-5.38282 0.0195,-3.58984 0.0312,-7.17968 0.0391,-10.76562 0.0117,-3.91406 0.0156,-7.82813 -0.004,-11.74219 -0.008,-1.38281 -0.0156,-2.76562 -0.043,-4.14844 -0.0117,-0.60546 0.0508,-1.28906 -0.082,-1.88281 -0.27344,-1.2539 -2.74609,-3.42969 -0.52734,-4.19922 1.96094,-0.67968 4.32422,-0.44531 6.37109,-0.44531 2.26563,0 4.53125,0.0664 6.79688,0.10547 4.25,0.082 7.92968,1.71094 10.36328,4.58203 1.73828,2.05078 3.63672,5.67969 2.80469,11.32813"
         id="path246" /><path
         fill-rule="nonzero"
         fill="#fef9e6"
         fill-opacity="1"
         d="m 294.21094,157.72656 c 0,-2.3164 -1.95703,-4.27344 -4.26953,-4.27344 -2.31641,0 -4.27344,1.95704 -4.27344,4.27344 v 19.34375 c 0,2.31641 1.95703,4.27344 4.27344,4.27344 2.3125,0 4.26953,-1.95703 4.26953,-4.27344 z m 7.46875,0 v 19.34375 c 0,6.45703 -5.28516,11.73828 -11.73828,11.73828 -6.45704,0 -11.73829,-5.28125 -11.73829,-11.73828 v -19.34375 c 0,-6.45703 5.28125,-11.73828 11.73829,-11.73828 6.45312,0 11.73828,5.28125 11.73828,11.73828"
         id="path247" /><path
         fill-rule="nonzero"
         fill="#fef9e6"
         fill-opacity="1"
         d="m 42.644531,69.324219 c -0.945312,-0.75 -2.15625,-0.597657 -3.269531,-0.613281 -0.46875,-0.0078 -0.851562,0.414062 -0.851562,0.9375 -0.0039,3.246093 0.0078,13 0.02734,13.074218 -0.0039,0.175782 0.113281,0.28125 0.289063,0.34375 4.011718,-1.039062 4.472656,-6.847656 4.914062,-10.183594 0.175782,-1.34375 -0.04297,-2.714843 -1.109375,-3.558593 m 5.058594,4.117187 C 47.296875,76.207031 46.90625,77.5 46.527344,78.75 c -0.0625,0.203125 -0.121094,0.40625 -0.183594,0.617188 -0.476562,1.625 -1.292969,3.164062 -2.460938,4.398437 -0.878906,0.925781 -1.949218,1.671875 -3.148437,2.132813 -1.558594,0.597656 -3.265625,0.621093 -4.910156,0.632812 -0.523438,0.0039 -1.0625,0.02734 -1.5625,-0.148438 -0.75,-0.261718 -0.390625,-0.933593 -0.09766,-1.417968 0.535157,-0.886719 0.394532,-1.761719 0.398438,-2.753906 0.01172,-1.832032 0.01563,-3.667969 0.01953,-5.5 0.0078,-2 0.0078,-4 0,-6 -0.0039,-0.703126 -0.0078,-1.410157 -0.02344,-2.117188 -0.0078,-0.308594 0.02344,-0.660156 -0.04297,-0.960938 C 34.378906,66.992188 33.113281,65.878906 34.246094,65.484375 35.25,65.140625 36.457031,65.257812 37.5,65.257812 c 1.160156,0 2.320312,0.03516 3.476562,0.05469 2.167969,0.04297 4.050782,0.875 5.292969,2.339844 0.890625,1.050781 1.859375,2.902344 1.433594,5.789062"
         id="path248" /><path
         fill-rule="nonzero"
         fill="#fef9e6"
         fill-opacity="1"
         d="m 61.375,83.570312 c -0.175781,0.679688 -0.578125,2.082032 -0.71875,2.375 -0.265625,0.554688 -1.078125,0.507813 -1.617188,0.480469 -0.03125,-0.0039 -2.164062,-0.0039 -4.40625,-0.0039 -0.1875,0.03125 -0.378906,0.04687 -0.574218,0.05078 -0.6875,0.05859 -1.363282,0.05469 -2.050782,0.05859 -0.523437,0.0039 -1.0625,0.02734 -1.5625,-0.148438 -0.75,-0.261718 -0.390624,-0.933593 -0.09766,-1.417968 0.535156,-0.886719 0.394532,-1.761719 0.398438,-2.753906 0.01172,-1.832032 0.01563,-3.664063 0.01953,-5.5 0.0078,-2 0.0078,-4 0,-6 -0.0039,-0.703126 -0.0078,-1.410157 -0.02344,-2.117188 -0.0078,-0.308594 0.02734,-0.660156 -0.04297,-0.964844 -0.136719,-0.636718 -1.402344,-1.75 -0.269531,-2.140625 0.71875,-0.25 1.515624,-0.167969 2.261718,-0.191406 0.40625,-0.01172 0.816406,-0.02344 1.222656,0.0039 2.105469,0 5.089844,0 5.125,-0.0039 0.539063,-0.02734 1.351563,-0.07031 1.617188,0.480469 0.140625,0.296875 0.542969,1.695312 0.71875,2.375 0.07813,0.3125 -0.152344,0.617187 -0.476562,0.617187 h -5.246094 c -0.425782,0 -0.792969,0.261719 -0.945313,0.628907 0,0.816406 0,2.386718 0,4.175781 0,0.269531 0.308594,0.425781 0.523438,0.269531 l 2.238281,-1.628906 c 0.238281,-0.210938 0.617188,-0.140625 0.765625,0.148437 0.320313,0.621094 0.953125,1.933594 1.042969,2.25 0.167968,0.589844 -0.46875,1.097657 -0.886719,1.433594 -0.02344,0.01563 -1.660156,1.273437 -3.140625,2.40625 -0.335938,0.257813 -0.535156,0.660156 -0.53125,1.082031 0,1.28125 0.0039,2.316406 0.0078,2.835938 0.167969,0.34375 0.519532,0.582031 0.925782,0.582031 h 5.246094 c 0.324218,0 0.554687,0.304687 0.476562,0.617187"
         id="path249" /><path
         fill-rule="nonzero"
         fill="#fef9e6"
         fill-opacity="1"
         d="m 44.234375,152.38281 c -0.371094,-0.5625 -1.082031,-0.71484 -1.671875,-0.77344 -0.324219,-0.0312 -1.453125,0.0195 -2.074219,0.0547 -0.171875,0.0117 -0.304687,0.14844 -0.308593,0.32031 -0.02344,1.37891 -0.03125,3.64844 -0.03125,6.0586 0.09375,0.11719 0.261718,0.14844 0.382812,0.0312 0.453125,-0.41797 2.902344,-2.60156 3.476562,-3.42969 0.4375,-0.62891 0.691407,-1.55859 0.226563,-2.26172 m 4.429687,1.23047 c -0.265624,1.32813 -1.457031,2.48828 -2.320312,3.48438 -0.964844,1.11328 -2.007812,2.16015 -3.140625,3.10156 -0.804687,0.67187 -1.625,1.32422 -2.417969,2.00781 -0.320312,0.27734 -0.535156,0.66016 -0.621094,1.08203 0.01172,2.54297 0.02734,4.52735 0.03125,4.78906 0.0039,0.14063 0.01953,0.28516 0.06641,0.42188 0.08203,0.24609 0.21875,0.46875 0.351562,0.69141 0.316407,0.51953 0.699219,1.23828 -0.101562,1.51562 -0.335938,0.11719 -0.691407,0.15234 -1.046875,0.16016 -0.738282,0.0664 -1.460938,0.0586 -2.199219,0.0664 -0.554687,0.004 -1.132813,0.0234 -1.667969,-0.16015 -0.800781,-0.27735 -0.417968,-0.9961 -0.101562,-1.51953 0.132812,-0.22266 0.269531,-0.44532 0.351562,-0.6875 0.04297,-0.12891 0.05859,-0.26172 0.0625,-0.39063 0,-0.35547 0.0078,-0.71094 0.01172,-1.06641 0.03125,-3.6875 0.08984,-15.74218 -0.05078,-16.38671 -0.148438,-0.6836 -1.5,-1.875 -0.289063,-2.29688 0.613281,-0.21094 1.535157,-0.10547 2.152344,-0.14453 0.441406,-0.0273 0.878906,-0.0469 1.320313,-0.043 2.253906,0.0312 5.183593,-0.38672 7.265624,0.67188 1.707032,0.86718 2.71875,2.80468 2.34375,4.70312"
         id="path250" /><path
         fill-rule="nonzero"
         fill="#fef9e6"
         fill-opacity="1"
         d="m 58.308594,159.96875 c -0.234375,-2.70703 -0.566406,-5.375 -0.773438,-7.60156 -0.02344,-0.21875 -0.207031,-0.38672 -0.425781,-0.38672 h -1.351563 c -0.222656,0 -0.40625,0.16797 -0.425781,0.38672 -0.261719,2.83203 -0.742187,6.85156 -1.011719,10.13672 -0.02344,0.26171 0.285157,0.41796 0.484376,0.24609 l 3.359374,-2.42188 c 0.101563,-0.0898 0.15625,-0.22265 0.144532,-0.35937 m 5.15625,10.66016 c -0.324219,0.27343 -0.886719,0.28906 -1.488282,0.28125 -0.07812,0 -0.148437,0 -0.207031,0 -0.636719,0.0117 -2.28125,0.0781 -2.75,-0.14844 -0.558593,-0.26563 -0.273437,-0.91406 -0.06641,-1.32422 0.28125,-0.55078 0.121094,-1.10156 0.08203,-1.69531 -0.05469,-0.84375 -0.121094,-1.69141 -0.183594,-2.53516 -0.01562,-0.25 -0.308593,-0.37109 -0.496093,-0.20703 l -4.175781,2.88672 c -0.308594,0.26562 -0.398438,0.53125 -0.402344,0.9414 0,0.41016 0.195312,0.65625 0.324218,1.03516 0.121094,0.34766 0.132813,0.73828 -0.246093,0.91797 -0.46875,0.22656 -2.125,0.14062 -2.761719,0.12891 -0.05469,0 -0.128906,0 -0.207031,0 -0.597657,0.008 -1.164063,-0.008 -1.484375,-0.28125 -0.53125,-0.44922 -0.121094,-1.23047 0.207031,-1.85938 0.109375,-0.20703 0.210937,-0.40625 0.242187,-0.52344 0.175782,-0.66015 2.1875,-17.35156 1.914063,-18.32422 -0.01172,-0.0508 -0.02734,-0.10546 -0.05078,-0.16796 -0.09375,-0.28516 -0.21875,-0.67969 -0.06641,-0.9961 0.28125,-0.58984 1.152343,-0.54297 1.726562,-0.51172 0.113281,0.008 0.21875,0.0156 0.304688,0.0117 0.234374,0 0.472656,0 0.707031,0 h 4.089843 c 0.238282,0 0.472657,0 0.707032,0 0.08594,0.004 0.191406,-0.004 0.304687,-0.0117 0.578125,-0.0312 1.445313,-0.0781 1.730469,0.51172 0.152344,0.31641 0.02344,0.71094 -0.07031,0.9961 -0.01953,0.0625 -0.03516,0.11718 -0.05078,0.16796 -0.269531,0.97266 1.738282,17.66407 1.914063,18.32422 0.03125,0.11719 0.136719,0.31641 0.246093,0.52344 0.328126,0.62891 0.734376,1.41016 0.207032,1.85938"
         id="path251" /><path
         fill-rule="nonzero"
         fill="#fef9e6"
         fill-opacity="1"
         d="m 74.644531,151.72266 c -0.851562,-0.23047 -1.839843,-0.14063 -2.734375,-0.0625 -0.167968,0.0156 -0.296875,0.15234 -0.300781,0.32031 -0.02344,1.34765 -0.03125,3.55469 -0.03125,5.91015 0,0.19532 0.234375,0.32032 0.378906,0.1875 0.457031,-0.42187 2.90625,-2.60546 3.480469,-3.43359 0.75,-1.07812 0.605469,-2.54297 -0.792969,-2.92187 m 5.070313,17.49609 c 0.335937,0.50781 0.746094,1.21094 -0.04297,1.52344 -0.289063,0.10937 -0.589844,0.16406 -0.898437,0.1875 -0.691407,0.0273 -1.394532,-0.0469 -1.933594,-0.3125 -0.601563,-0.28907 -1.199219,-0.83203 -1.515625,-1.42578 -0.367188,-0.6875 -0.375,-1.55469 -0.402344,-2.31641 -0.03125,-0.84375 -0.01172,-1.69141 -0.08594,-2.53516 -0.09375,-1.04687 -0.441407,-2.07812 -0.902344,-3.0039 -0.105469,-0.20703 -0.359375,-0.26172 -0.53125,-0.11328 -0.105469,0.0859 -0.898438,0.73437 -1.1875,0.98437 -0.320313,0.27734 -0.535156,0.66016 -0.621094,1.08203 0.01172,2.54297 0.02734,4.52735 0.03125,4.78906 0.0039,0.14063 0.01953,0.28516 0.06641,0.42188 0.08203,0.24609 0.21875,0.46875 0.351563,0.6875 0.316406,0.52344 0.699219,1.24219 -0.101563,1.51953 -0.335937,0.11719 -0.691406,0.15234 -1.050781,0.16016 -0.734375,0.0664 -1.457031,0.0586 -2.191406,0.0664 -0.558594,0.004 -1.140625,0.0234 -1.671875,-0.16015 -0.800782,-0.27735 -0.417969,-1 -0.101563,-1.51953 0.132813,-0.21875 0.269531,-0.44532 0.351563,-0.69141 0.04297,-0.125 0.05859,-0.25781 0.0625,-0.38672 0,-0.35547 0.0078,-0.71094 0.01172,-1.07031 0.02734,-3.6836 0.08984,-15.73828 -0.05078,-16.38281 -0.148437,-0.6836 -1.5,-1.875 -0.289062,-2.29297 0.597656,-0.20703 1.480469,-0.11719 2.09375,-0.14453 0.476562,-0.0234 0.953125,-0.0508 1.429687,-0.0469 2.25,0.0273 5.148438,-0.37891 7.214844,0.67188 1.707031,0.86718 2.71875,2.80859 2.34375,4.69921 -0.265625,1.33204 -1.457031,2.49219 -2.324219,3.49219 -0.210937,0.24219 -0.425781,0.48438 -0.648437,0.72266 -0.363282,0.39062 -0.398438,0.98047 -0.08203,1.41015 0.386719,0.53125 0.851563,1.15625 0.898438,1.23829 1.320312,2.23828 1.175781,4.77343 1.292969,7.26953 0.02734,0.52343 0.1875,1.03125 0.476562,1.46875 0.0039,0.004 0.0039,0.004 0.0078,0.008"
         id="path252" /><path
         fill-rule="nonzero"
         fill="#fef9e6"
         fill-opacity="1"
         d="m 92.140625,159.96875 c -0.230469,-2.70703 -0.566406,-5.375 -0.773437,-7.60156 -0.01953,-0.21875 -0.203126,-0.38672 -0.425782,-0.38672 h -1.351562 c -0.21875,0 -0.40625,0.16797 -0.425782,0.38672 -0.261718,2.83203 -0.742187,6.85156 -1.011718,10.13672 -0.02344,0.26171 0.285156,0.41796 0.484375,0.24609 l 3.359375,-2.42188 c 0.101562,-0.0898 0.160156,-0.22265 0.144531,-0.35937 m 5.15625,10.66016 c -0.320313,0.27343 -0.886719,0.28906 -1.488281,0.28125 -0.07813,0 -0.148438,0 -0.203125,0 -0.636719,0.0117 -2.28125,0.0781 -2.753907,-0.14844 -0.558593,-0.26563 -0.273437,-0.91406 -0.06641,-1.32422 0.28125,-0.55078 0.121094,-1.10156 0.08594,-1.69531 -0.05469,-0.84375 -0.121094,-1.69141 -0.183594,-2.53516 -0.01953,-0.25 -0.3125,-0.37109 -0.5,-0.20703 l -4.175781,2.88672 c -0.308594,0.26562 -0.398438,0.53125 -0.402344,0.9414 0,0.41016 0.195313,0.65625 0.328125,1.03516 0.117188,0.34766 0.132812,0.73828 -0.246094,0.91797 -0.472656,0.22656 -2.128906,0.14062 -2.765625,0.12891 -0.05469,0 -0.125,0 -0.207031,0 -0.597656,0.008 -1.164062,-0.008 -1.484375,-0.28125 -0.527344,-0.44922 -0.121094,-1.23047 0.207031,-1.85938 0.109375,-0.20703 0.210938,-0.40625 0.242188,-0.52344 0.175781,-0.66015 2.1875,-17.35156 1.917968,-18.32422 -0.01562,-0.0508 -0.03125,-0.10546 -0.05078,-0.16796 -0.09375,-0.28516 -0.222656,-0.67969 -0.07031,-0.9961 0.285156,-0.58984 1.152343,-0.54297 1.726562,-0.51172 0.117188,0.008 0.21875,0.0156 0.304688,0.0117 0.238281,0 0.472656,0 0.707031,0 h 4.089844 c 0.238281,0 0.472656,0 0.710937,0 0.08203,0.004 0.1875,-0.004 0.304688,-0.0117 0.574219,-0.0312 1.441406,-0.0781 1.726562,0.51172 0.152344,0.31641 0.02344,0.71094 -0.07031,0.9961 -0.01953,0.0625 -0.03516,0.11718 -0.05078,0.16796 -0.269532,0.97266 1.742187,17.66407 1.914062,18.32422 0.03125,0.11719 0.136719,0.31641 0.246094,0.52344 0.328125,0.62891 0.734375,1.41016 0.207031,1.85938"
         id="path253" /><path
         fill-rule="nonzero"
         fill="#fef9e6"
         fill-opacity="1"
         d="m 119.65625,167.76562 c -0.1875,0.72657 -0.61328,2.22657 -0.76562,2.53907 -0.28516,0.58984 -1.15625,0.54297 -1.73047,0.51172 -0.0312,0 -2.3125,0 -4.71094,0 -0.19922,0.0312 -0.40625,0.0469 -0.61328,0.0508 -0.73828,0.0664 -1.45703,0.0586 -2.19531,0.0664 -0.55469,0.004 -1.13282,0.0234 -1.66797,-0.16015 -0.80078,-0.27735 -0.41797,-0.9961 -0.10547,-1.51953 0.57422,-0.94532 0.42187,-1.88282 0.42578,-2.94141 0.0117,-1.96094 0.0195,-3.92188 0.0234,-5.87891 0.004,-2.14062 0.008,-4.27734 -0.004,-6.41797 -0.004,-0.7539 -0.008,-1.51171 -0.0234,-2.26562 -0.008,-0.32813 0.0273,-0.70313 -0.043,-1.02734 -0.15234,-0.6836 -1.5039,-1.875 -0.28906,-2.29297 0.76953,-0.26953 1.61719,-0.17969 2.41797,-0.20313 0.43359,-0.0156 0.87109,-0.0234 1.30469,0.004 2.2539,0 5.44531,0 5.48047,-0.004 0.57422,-0.0312 1.44531,-0.0781 1.73047,0.51563 0.15234,0.3125 0.57812,1.8125 0.76562,2.53906 0.0898,0.33203 -0.16406,0.66016 -0.50781,0.66016 h -5.60938 c -0.45312,0 -0.84375,0.27734 -1.01172,0.67187 0,0.87109 0,2.55078 0.004,4.46484 0,0.28907 0.32422,0.45313 0.55859,0.28516 l 2.39063,-1.73828 c 0.25781,-0.23047 0.66016,-0.15234 0.82031,0.15625 0.33985,0.66406 1.01953,2.07031 1.11328,2.40625 0.17969,0.62891 -0.49609,1.17187 -0.94922,1.53125 -0.0234,0.0195 -1.77343,1.36328 -3.35546,2.57422 -0.35938,0.27734 -0.57032,0.70703 -0.57032,1.16015 0.004,1.36719 0.008,2.47657 0.0117,3.03125 0.17578,0.36719 0.55469,0.6211 0.98828,0.6211 h 5.60938 c 0.34375,0 0.59765,0.32812 0.50781,0.66015"
         id="path254" /><path
         fill-rule="nonzero"
         fill="#fef9e6"
         fill-opacity="1"
         d="m 135.23828,165.48828 c -0.47656,1.42188 -0.95312,2.84375 -1.54297,4.22266 -0.30859,0.71875 -1.01562,1.1875 -1.80078,1.17968 -1.76172,-0.0117 -4.75,-0.0273 -5,-0.0234 -0.73828,0.0664 -1.46094,0.0586 -2.19531,0.0664 -0.55469,0.004 -1.13672,0.0234 -1.66797,-0.16015 -0.80469,-0.27735 -0.41797,-0.9961 -0.10547,-1.51953 0.57422,-0.94532 0.42188,-1.88282 0.42578,-2.94141 0.0117,-1.96094 0.0195,-3.92188 0.0234,-5.88281 0.004,-2.13672 0.008,-4.27344 -0.004,-6.41407 -0.004,-0.7539 -0.008,-1.51171 -0.0234,-2.26562 -0.008,-0.32813 0.0273,-0.70313 -0.043,-1.02734 -0.15235,-0.6836 -1.50391,-1.875 -0.28906,-2.29688 0.76953,-0.26562 1.61718,-0.17578 2.41796,-0.20312 0.84375,-0.0234 1.71875,-0.0391 2.52735,0.24218 1.04687,0.36328 0,1.37891 -0.21485,1.95313 -0.16796,0.46094 -0.16406,1.04297 -0.15625,1.5664 -0.008,0.0508 0,14.40625 0.0273,14.5 -0.004,0.52735 1.15234,0.46094 2.02734,0.33204 0.53906,-0.12891 0.85938,-0.52735 1.03516,-0.96094 l 2.60156,-6.51172 c 0.15234,-0.38281 0.57031,-0.39844 0.84766,-0.0391 0.59765,0.78906 1.60937,2.13672 1.80859,2.5664 0.48828,1.0586 -0.37109,2.625 -0.69922,3.61719"
         id="path255" /><path
         fill-rule="nonzero"
         fill="#ed7a3a"
         fill-opacity="1"
         d="m 99.402344,83.058594 -10.113282,-8 -10.121093,8 -11.050781,-8.734375 C 67.46875,73.8125 67.359375,72.867188 67.871094,72.21875 c 0.515625,-0.652344 1.460937,-0.761719 2.109375,-0.246094 l 9.1875,7.261719 10.121093,-8 10.113282,8 10.117186,-8 10.11719,8 10.12109,-8 10.11719,8 10.12109,-8 10.1211,8 10.11718,-8 10.1211,8 10.12109,-8 10.125,8 10.1211,-8 10.12109,8 10.12109,-8 10.1211,8 10.12109,-8 10.125,8 10.125,-8 10.12891,8 9.19922,-7.261719 c 0.65234,-0.515625 1.59375,-0.40625 2.10546,0.246094 0.51563,0.648438 0.40625,1.59375 -0.24609,2.105469 l -11.05859,8.734375 -10.12891,-8 -10.125,8 -10.125,-8 -10.12109,8 -10.1211,-8 -10.12109,8 -10.12109,-8 -10.1211,8 -10.125,-8 -10.12109,8 -10.1211,-8 -10.11718,8 -10.1211,-8 -10.12109,8 -10.11719,-8 -10.12109,8 -10.11719,-8 z m 0,0"
         id="path256" /><path
         fill-rule="nonzero"
         fill="#ed7a3a"
         fill-opacity="1"
         d="m 84.871094,187.53125 -9.785156,-8 -9.785157,8 -9.789062,-8 -9.785157,8 -10.738281,-8.77734 c -0.640625,-0.52344 -0.734375,-1.46875 -0.210937,-2.10938 0.523437,-0.64453 1.46875,-0.73828 2.109375,-0.21484 l 8.839843,7.22656 9.785157,-8 9.789062,8 9.785157,-8 9.785156,8 9.785156,-8 9.79297,8 9.78516,-8 9.79687,8 8.84766,-7.22656 c 0.64062,-0.52344 1.58593,-0.42969 2.10937,0.21484 0.52344,0.64063 0.42969,1.58594 -0.21484,2.10938 l -10.74219,8.77343 -9.79687,-7.99609 -9.78516,8 -9.79297,-8 z m 0,0"
         id="path257" /></g></g></svg>
